<svg xmlns="http://www.w3.org/2000/svg" viewBox="-0.5 -0.5 16 16" fill="none" stroke="#808080" stroke-linecap="round" stroke-linejoin="round" id="Settings-2--Streamline-Tabler" height="16" width="16">
  <path d="M12.421875 3.9187499999999997A1.390625 1.390625 0 0 1 13.125 5.13625v4.5525c0 0.505625 -0.276875 0.9718749999999999 -0.7237499999999999 1.2175l-4.21875 2.6687499999999997a1.418125 1.418125 0 0 1 -1.3650000000000002 0l-4.21875 -2.6687499999999997A1.390625 1.390625 0 0 1 1.875 9.68875V5.135625c0 -0.505625 0.276875 -0.9712500000000001 0.7237499999999999 -1.216875l4.21875 -2.4875a1.45625 1.45625 0 0 1 1.40625 0l4.21875 2.4875h-0.020625z" stroke-width="1"></path>
  <path d="M5.625 7.5a1.875 1.875 0 1 0 3.75 0 1.875 1.875 0 1 0 -3.75 0" stroke-width="1"></path>
</svg>
